<svg id="Layer_1" data-name="Layer 1" xmlns="http://www.w3.org/2000/svg" width="606.35" height="734" viewBox="0 0 606.35 734"><defs><style>.cls-1{fill-rule:evenodd;}</style></defs><title>revolut-logo</title><path class="cls-1" d="M357.32,163.26C348.26,227.05,341,280.76,328,364.41c35.27-.77,115.3,13.27,132.92-101,14.58-95.1-50.42-103.91-103.56-100.11Z" transform="translate(-71.82 -8)"/><path class="cls-1" d="M212.56,97.36a478.81,478.81,0,0,1,.39,48.82c-.7,16.63-2.14,33.19-4,49.72s-4,32.88-6.26,49.28l-.73,5.36q-10.53,76.92-22.18,153.63c-8.17,53.74-17.33,107.19-26.49,160.71-4.24,25-13.78,56.94-.73,80.74,11.61,21.26,41.42,23.84,62.2,21.7,75.66-7.72,87.69-24.54,87.69-24.54-15.09-16.72-2-92.93,13.22-195.37h53.77l56.29,170.26s16.6,52.75,62.71,50.2c59.07-3.26,102.54-16.76,108.79-24.26C579.05,633.46,527,503.39,498.7,407.87a358.65,358.65,0,0,0,39.57-27.64c17.14-14,33-30.09,45.19-49a145.46,145.46,0,0,0,19.24-44.46A170.91,170.91,0,0,0,606.53,261a198.57,198.57,0,0,0-1.4-45.45c-2.11-14.42-5.27-30.47-11.72-43.49-12-24.35-28.91-45.61-52-59.2C502.4,90,457.47,85.58,413.65,83.19a806.08,806.08,0,0,0-142.43,4.66c-5.3.64-58.88,5.36-58.66,9.51Zm450.17,525.8c13.72,30.54-.1,69.15-28.72,84.69-16.44,8.94-35.2,17.24-53.94,21.9A451.63,451.63,0,0,1,485.74,742c-50.84,0-101.8-29.1-123.76-64.53-5.68,12.22-26.17,36.8-62.07,48.35-22.69,7.34-50,16.18-107.13,16.12-51.16,0-80.33-23.24-95.74-42.7-24.57-31-28.18-70.28-23.39-96.76l.25-1.28c19.31-96.86,45.7-273,57.86-361.19l.13-.86c3.32-24.48,6.7-49,8.71-73.59,1-12.42,1.66-24.9,1.79-37.34.13-11.78-1-23.52-.86-35.3.12-11.1,1.91-22.34,7.11-32.17C157.1,44.89,172.58,32.38,189,26.93c18-6,36.73-8.4,55.4-10.57q28.64-3.43,57.38-5.74Q336.79,8,371.94,8c40.08,0,80.42.64,119.93,8.78,40.24,8.29,80.9,24.16,112.65,52,21.76,19,39,43.08,52,69.38,11.36,23.17,16,47.55,18.73,66.19a276.31,276.31,0,0,1-3.8,100.49,220.08,220.08,0,0,1-29.13,67.72c-15.13,23.49-34.53,44.81-59.27,65.1C598.14,481.33,637.39,566.73,662.73,623.16Z" transform="translate(-71.82 -8)"/></svg>